<svg xmlns="http://www.w3.org/2000/svg" xmlns:xlink="http://www.w3.org/1999/xlink" viewBox="0,0,256,256" width="48px" height="48px" fill-rule="nonzero"><g fill="none" fill-rule="nonzero" stroke="none" stroke-width="1" stroke-linecap="butt" stroke-linejoin="miter" stroke-miterlimit="10" stroke-dasharray="" stroke-dashoffset="0" font-family="none" font-weight="none" font-size="none" text-anchor="none" style="mix-blend-mode: normal"><g transform="scale(5.33333,5.33333)"><path d="M22.69,10.71c-0.01,0.57 -0.03,1.16 -0.19,1.72c-0.15,0.55 -0.48,1.08 -0.99,1.37c-0.44,0.24 -0.96,0.27 -1.46,0.27c-0.7,0 -1.44,-0.08 -2.02,-0.48c-0.51,-0.34 -0.83,-0.89 -1.13,-1.43c0,0 -1.54,-0.8 -1.03,-3.26c0.33,-1.57 2.19,-2.14 2.54,-2.31c0.97,-0.25 1.57,-0.01 2.16,0.24c0.4,0.17 0.83,0.54 1.15,0.83c0.02,0.03 0.04,0.06 0.06,0.11c0.17,0.29 0.55,0.9 0.65,1.11c0.27,0.56 0.27,1.2 0.26,1.83z" fill="#ab693c"></path><path d="M21.722,7.663c-0.319,-0.297 -0.756,-0.659 -1.156,-0.832c-0.59,-0.254 -1.182,-0.496 -2.161,-0.241c-0.349,0.167 -2.209,0.742 -2.534,2.308c-0.51,2.46 1.026,3.265 1.026,3.265c0,0 0.168,-1.089 0.73,-1.197c1.546,-0.298 1.258,-1.732 2.215,-2.337c0.412,-0.259 2.052,-0.807 1.88,-0.966z" fill="#000000"></path><path d="M26.84,21.56c-0.24,0.24 -0.54,0.39 -0.87,0.48c-0.56,0.15 -1.21,0.13 -1.8,0.1c-0.49,-0.02 -0.97,-0.02 -1.45,-0.03c-0.49,-0.01 -0.97,-0.03 -1.45,-0.09c-0.04,0 -0.08,-0.01 -0.12,-0.02c-0.28,-0.04 -0.56,-0.11 -0.82,-0.21l1.52,-3.23c0.09,0.05 0.18,0.08 0.27,0.11c0.28,0.08 0.57,0.06 0.86,0.03c0.96,-0.07 1.48,0.02 2.45,0.04c0.63,0.01 1.14,0.22 1.2,0.33c0.28,0.46 0.53,0.45 0.62,0.98c0.08,0.53 -0.03,1.12 -0.41,1.51z" fill="#ab693c"></path><path d="M21.85,18.56l-1.52,3.23c-0.31,-0.11 -0.59,-0.27 -0.83,-0.48c-0.47,1.49 -1.35,4.16 -1.81,5.65l-6.19,-1.42c0.71,-2.5 1.55,-4.93 2.52,-7.38c0.53,-1.33 1.36,-2.84 2.79,-2.96c0.6,0 0.95,0.25 1.19,0.3c1.15,0.68 2.05,1.45 3.01,2.38c0.26,0.25 0.52,0.52 0.84,0.68z" fill="#3f58b5"></path><path d="M22.5,29.35h-0.01l-2.69,2.15c-0.87,-0.81 -2.21,-0.73 -3.4,-0.65c-1.09,0.06 -2.21,0.08 -3.28,-0.18c-0.97,-0.24 -1.91,-0.73 -2.55,-1.5v-0.01c0.28,-1.23 0.59,-2.43 0.93,-3.62l6.19,1.42c-0.05,0.15 -0.09,0.3 -0.04,0.44c0.08,0.19 0.3,0.26 0.49,0.3c1.01,0.21 2.1,0.08 3.04,0.51c0.54,0.25 0.96,0.66 1.32,1.14z" fill="#283d5b"></path><path d="M25.37,38.94c-0.12,0.45 -0.45,0.87 -0.91,0.96c-0.51,0.09 -1.06,0.35 -1.46,0.01c-1.17,-0.96 -1.7,-3.35 -2.44,-4.84c0.22,-0.44 0.36,-1.15 0.1,-1.99c-0.18,-0.58 -0.42,-1.16 -0.86,-1.58l2.69,-2.15h0.01c0.34,0.48 0.62,1.03 0.86,1.58c0.93,2.12 1.59,4.34 1.98,6.62c0.08,0.46 0.14,0.93 0.03,1.39z" fill="#ab693c"></path><path d="M20.56,35.07c-3.04,0.26 -6.08,0.59 -9.04,-0.11c-0.43,-0.1 -0.86,-0.22 -1.29,-0.35c-0.73,-0.24 -1.43,-0.54 -2.06,-0.97c-0.01,-0.01 -0.03,-0.02 -0.04,-0.03c-0.63,-0.44 -1.17,-1 -1.58,-1.65c-0.84,-1.32 -1.11,-2.9 -1.36,-4.44c-0.64,-4.02 -1.2,-8.06 -1.67,-12.1c1.07,-1.35 1.64,-1.07 2.78,-0.52c1.14,0.55 1.82,1.77 2.11,3c0.29,1.23 0.25,2.51 0.34,3.77c0.11,1.55 0.42,3.08 0.73,4.61c0.18,0.93 0.38,1.88 0.92,2.66c0.05,0.08 0.11,0.15 0.17,0.22v0.01c0.64,0.77 1.58,1.26 2.55,1.5c1.07,0.26 2.19,0.24 3.28,0.18c1.19,-0.08 2.53,-0.16 3.4,0.65c0.44,0.42 0.68,1 0.86,1.58c0.26,0.84 0.12,1.55 -0.1,1.99z" fill="#323a46"></path><path d="M10.23,34.61c-0.32,1.96 -0.72,4.22 -1.3,6.13c-0.19,0.64 -0.38,1.27 -0.58,1.91c-0.04,0.15 -0.09,0.31 -0.22,0.39c-0.09,0.07 -0.4,0.04 -0.48,0.04c-0.5,0.02 -0.72,0.01 -1.17,-0.01c-0.1,-0.01 -0.16,0.01 -0.35,-0.02c-0.2,-0.04 -0.27,-0.38 -0.23,-0.59c0.64,-2.84 1.39,-5.95 2.16,-8.76l0.07,-0.09c0.01,0.01 0.03,0.02 0.04,0.03c0.63,0.43 1.33,0.73 2.06,0.97z" fill="#000000"></path><path d="M16.807,35.377c0.062,1.491 0.478,2.862 0.833,3.888c0.439,1.269 0.687,2.401 1.058,3.691c0.02,0.07 0.044,0.143 0.098,0.192c0.063,0.057 0.154,0.068 0.238,0.076c0.837,0.079 1.429,0.093 2.268,0.042c-0.266,-2.454 -1.704,-4.808 -2.11,-7.445" fill="#000000"></path><path d="M42.97,42.98c-2.4,-0.32 -6.02,0.01 -8.44,0.01c-0.8,0 -1.71,-0.17 -2.49,0c-1.21,0.27 -2.78,0.45 -3.98,0.2c0.04,-5.63 0.12,-12.18 -0.06,-17.8c-2.19,0.03 -4.39,0.06 -6.58,0.09c-0.11,0 -0.22,0 -0.3,-0.07c-0.08,-0.08 -0.09,-0.21 -0.08,-0.32l0.03,-2.58l1.65,-0.4c0.48,0.01 0.96,0.01 1.45,0.03c0.59,0.03 1.24,0.05 1.8,-0.1c1.06,0.04 2.14,0.07 3.24,0.08c1.85,0.04 3.75,0.04 5.66,0.04h1.81c1.55,0.01 3.11,0.02 4.65,0.05h0.01c0.49,0.01 0.98,0.03 1.47,0.04c0.17,0.51 0.18,1.31 0.18,1.89c0.1,6.04 -0.02,12.84 -0.02,18.84z" fill="#283d5b"></path><path d="M34.87,22.04v0.12c-1.91,0 -3.81,0 -5.66,-0.04v-0.12c0,-0.37 0.01,-1.67 0.31,-1.87c0.09,-0.07 0.21,-0.07 0.32,-0.08c1.53,-0.07 2.9,0.13 4.42,0.06c0.1,0 0.2,0 0.28,0.06c0.08,0.06 0.1,0.17 0.11,0.27c0.07,0.53 0.15,1.07 0.22,1.6z" fill="#373837"></path><path d="M41.36,21.64l-0.02,0.57h-0.01c-1.54,-0.03 -3.1,-0.04 -4.65,-0.05h-0.02v-0.6c-0.02,-0.55 0,-1.22 -0.11,-1.66c0.83,-0.01 1.66,-0.02 2.48,-0.03c-0.03,-0.19 -0.03,-0.77 -0.03,-1.18v-0.14l0.07,-12.44c1.16,0.57 1.93,1.33 1.93,1.33c0.15,0.45 0.15,2.19 0.18,2.67c0.21,3.27 0.13,7.47 0.18,10.11c0.01,0.22 0.07,0.93 0,1.42z" fill="#373837"></path><path d="M39.07,6.11l-0.07,12.44c0,-0.48 -0.04,-0.76 -0.59,-0.79c-0.6,-0.04 -1.41,0.32 -1.7,-0.21c-0.07,-0.14 -0.07,-0.31 -0.07,-0.47c0.06,-4.07 0.08,-7.79 -0.24,-12.08c0.98,0 1.61,-0.06 2.6,-0.05c0.06,0.86 0.07,1.16 0.07,1.16z" fill="#bcbcbc"></path><g fill="#000000"><path d="M16.528,12.517c0.46,0.789 0.981,1.491 1.875,1.819c0.836,0.307 1.991,0.351 2.847,0.103c0.912,-0.264 1.511,-1.042 1.751,-1.935c0.132,-0.489 0.165,-1.003 0.178,-1.508c0.013,-0.509 0.024,-1.019 -0.053,-1.524c-0.114,-0.755 -0.442,-1.227 -0.841,-1.85c-0.06,-0.094 -0.228,-0.328 -0.375,-0.456c-0.81,-0.707 -1.727,-1.232 -2.838,-1.181c-0.308,0.014 -0.645,0.054 -0.929,0.178c-0.018,0.008 -0.018,0.008 -0.025,0.011c-0.051,0.021 -0.101,0.042 -0.152,0.063c-0.329,0.137 -0.655,0.284 -0.96,0.469c-0.768,0.468 -1.421,1.159 -1.618,2.06c-0.207,0.943 -0.173,1.978 0.309,2.834c0.195,0.345 0.487,0.695 0.831,0.917zM22.169,11.286c-0.024,0.485 -0.081,0.993 -0.312,1.428c-0.489,0.919 -1.52,0.921 -2.445,0.826c-0.458,-0.047 -0.921,-0.177 -1.27,-0.49c-0.301,-0.269 -0.509,-0.619 -0.709,-0.967c0.016,-0.062 0.026,-0.126 0.046,-0.187c0.04,-0.124 0.056,-0.167 0.118,-0.276c0.017,-0.029 0.082,-0.122 0.071,-0.109c0.032,-0.037 0.038,-0.045 0.054,-0.053c0.076,-0.036 0.299,-0.07 0.418,-0.117c0.156,-0.06 0.308,-0.13 0.447,-0.224c0.264,-0.179 0.473,-0.407 0.645,-0.675c0.257,-0.399 0.406,-0.943 0.712,-1.254c0.303,-0.307 0.871,-0.459 1.281,-0.635c0.105,-0.045 0.228,-0.099 0.352,-0.16c0.258,0.413 0.515,0.826 0.583,1.321c0.068,0.513 0.034,1.056 0.009,1.572zM16.287,9.458c0.07,-0.746 0.399,-1.328 1.017,-1.753c0.252,-0.174 0.523,-0.319 0.802,-0.446c0.048,-0.022 0.096,-0.043 0.144,-0.063c0.018,-0.008 0.076,-0.032 0.09,-0.037c0.099,-0.041 0.215,-0.098 0.306,-0.119c0.812,-0.188 1.581,0.112 2.232,0.58c-0.202,0.089 -0.405,0.176 -0.608,0.262c-0.465,0.197 -0.886,0.391 -1.202,0.802c-0.308,0.4 -0.446,0.891 -0.731,1.303c-0.1,0.145 -0.266,0.301 -0.458,0.388c-0.291,0.131 -0.586,0.134 -0.839,0.355c-0.158,0.138 -0.278,0.321 -0.375,0.518c-0.342,-0.528 -0.44,-1.133 -0.378,-1.79z"></path><path d="M43.498,24.361c-0.011,-0.75 -0.001,-1.519 -0.209,-2.246c-0.062,-0.217 -0.26,-0.36 -0.482,-0.367c-0.325,-0.01 -0.65,-0.01 -0.975,-0.018c0.019,-3.133 0.042,-6.27 -0.051,-9.402c-0.042,-1.421 -0.06,-2.87 -0.187,-4.286c-0.037,-0.414 -0.054,-0.777 -0.364,-1.072c-0.487,-0.465 -1.083,-0.837 -1.68,-1.156c-0.015,-0.289 -0.031,-0.578 -0.05,-0.867c-0.018,-0.269 -0.215,-0.5 -0.5,-0.5c-0.868,0.001 -1.734,0.052 -2.602,0.053c-0.255,0 -0.52,0.229 -0.5,0.5c0.245,3.289 0.302,6.584 0.272,9.881c-0.007,0.782 -0.072,1.582 -0.028,2.362c0.029,0.505 0.301,0.924 0.805,1.055c0.27,0.07 0.545,0.038 0.817,0.007c0.137,-0.015 0.616,-0.134 0.723,-0.034c0.043,0.04 0.022,0.412 0.013,0.758c-0.003,0.116 0.011,0.232 0.013,0.348c-0.654,0.008 -1.308,0.016 -1.962,0.023c-0.272,0.003 -0.498,0.226 -0.5,0.5c-0.005,0.586 -0.026,1.174 -0.014,1.761c-0.24,0 -0.479,-0.002 -0.719,-0.002c-0.057,-0.453 -0.108,-0.908 -0.187,-1.356c-0.095,-0.533 -0.486,-0.705 -0.981,-0.689c-1.02,0.032 -2.036,-0.044 -3.055,-0.071c-0.496,-0.013 -1.069,-0.07 -1.557,0.041c-0.36,0.082 -0.56,0.353 -0.665,0.687c-0.138,0.437 -0.161,0.922 -0.166,1.389c-0.44,-0.001 -0.88,-0.004 -1.32,-0.006c0.672,-0.95 0.398,-2.196 -0.424,-2.961c-0.341,-0.318 -0.881,-0.405 -1.329,-0.444c-0.792,-0.069 -1.627,-0.103 -2.421,-0.062c-0.406,0.021 -0.826,0.11 -1.201,-0.099c-0.341,-0.19 -0.61,-0.523 -0.889,-0.79c-0.567,-0.542 -1.161,-1.053 -1.794,-1.517c-0.994,-0.729 -2.173,-1.42 -3.416,-0.858c-1.186,0.536 -1.837,1.802 -2.309,2.945c-1.327,3.213 -2.369,6.55 -3.206,9.925c-0.13,-0.333 -0.233,-0.685 -0.315,-1.051c-0.304,-1.348 -0.576,-2.722 -0.741,-4.094c-0.28,-2.332 0.089,-4.973 -1.396,-6.975c-0.587,-0.792 -1.458,-1.356 -2.403,-1.635c-0.987,-0.291 -1.724,0.25 -2.336,0.975c-0.127,0.074 -0.214,0.203 -0.191,0.404c0.527,4.465 1.048,8.972 1.891,13.39c0.352,1.848 1.021,3.657 2.513,4.886c0.033,0.027 0.07,0.05 0.104,0.077c-0.408,1.497 -0.794,2.999 -1.16,4.506c-0.193,0.794 -0.381,1.59 -0.566,2.386c-0.084,0.363 -0.167,0.725 -0.249,1.088c-0.072,0.318 -0.184,0.646 -0.149,0.975c0.064,0.611 0.485,0.82 1.044,0.839c0.523,0.018 1.081,0.079 1.601,0.007c0.694,-0.096 0.802,-0.836 0.973,-1.399c0.232,-0.767 0.474,-1.532 0.675,-2.309c0.393,-1.516 0.672,-3.059 0.93,-4.604c0.761,0.212 1.541,0.355 2.3,0.454c1.144,0.149 2.292,0.168 3.44,0.135c0.176,1.744 0.782,3.348 1.252,5.035c0.13,0.466 0.251,0.934 0.377,1.401c0.106,0.392 0.162,0.98 0.498,1.252c0.337,0.272 0.926,0.222 1.337,0.242c0.491,0.023 0.982,0.012 1.472,-0.016c0.246,-0.014 0.533,-0.219 0.5,-0.5c-0.306,-2.634 -1.535,-5.041 -2.068,-7.623c0.164,-0.014 0.329,-0.027 0.493,-0.041c0.314,0.838 0.609,1.684 0.971,2.503c0.349,0.788 0.813,1.74 1.55,2.242c0.659,0.449 1.954,0.199 2.527,-0.318c0.85,-0.767 0.668,-1.945 0.486,-2.951c-0.43,-2.369 -1.143,-4.749 -2.208,-6.913c-0.433,-0.88 -1.012,-1.745 -1.876,-2.253c-0.989,-0.581 -2.111,-0.469 -3.199,-0.651c-0.348,-0.059 -0.353,-0.041 -0.244,-0.369c0.075,-0.226 0.144,-0.455 0.217,-0.682c0.168,-0.525 0.337,-1.049 0.507,-1.574c0.278,-0.861 0.555,-1.722 0.829,-2.583c0.276,0.162 0.424,0.236 0.749,0.322c-0.003,0.739 0.004,1.478 0.003,2.216c-0.001,0.699 0.025,1.352 0.877,1.389c2.018,0.09 4.072,-0.035 6.098,-0.079c0.166,5.762 0.091,11.529 0.049,17.293c-0.002,0.204 0.155,0.442 0.367,0.482c1.219,0.23 2.46,0.132 3.674,-0.086c1.301,-0.234 2.571,-0.076 3.887,-0.109c2.482,-0.063 5.003,-0.315 7.477,0.001c0.269,0.034 0.5,-0.257 0.5,-0.5c0.001,-3.566 0.041,-7.133 0.057,-10.699c0.008,-1.778 0.011,-3.556 0,-5.334c-0.002,-0.859 -0.011,-1.721 -0.024,-2.584zM40.553,7.707c0.008,0.005 0.015,0.013 0.023,0.017c0.11,0.058 0.013,0.106 -0.023,-0.017zM38.011,17.275c-0.223,0.021 -0.703,0.185 -0.869,-0.032c-0.117,-0.153 0.01,-0.894 0.013,-1.095c0.006,-0.423 0.011,-0.845 0.015,-1.268c0.029,-3.134 -0.026,-6.265 -0.242,-9.392c0.534,-0.011 1.067,-0.023 1.601,-0.033c0.014,0.219 0.03,0.438 0.038,0.657v0l-0.06,11.159c-0.165,-0.012 -0.332,-0.011 -0.496,0.004zM37.04,20.395c0.664,-0.008 1.328,-0.016 1.992,-0.024c0.249,-0.003 0.529,-0.228 0.5,-0.5c-0.046,-0.428 0.037,-1.037 -0.03,-1.562l0.061,-11.317c0.128,0.08 0.266,0.145 0.39,0.233c0.194,0.138 0.388,0.358 0.596,0.479c0.01,0.071 0.026,0.145 0.034,0.211c0.034,0.281 0.042,0.566 0.054,0.848c0.059,1.434 0.132,2.868 0.164,4.303c0.063,2.882 0.049,5.765 0.032,8.647c-1.265,-0.024 -2.529,-0.042 -3.794,-0.048c-0.009,-0.423 -0.01,-0.847 0.001,-1.27zM31.203,20.547c0.818,0.025 1.635,0.082 2.453,0.078c0.13,-0.001 0.361,0.032 0.516,0.006c0.005,0.085 0.029,0.192 0.039,0.259c0.035,0.256 0.07,0.511 0.105,0.767c-1.535,0.002 -3.07,0.007 -4.604,0.008c0.005,-0.311 0.017,-0.625 0.073,-0.911c0.011,-0.056 0.026,-0.111 0.039,-0.167c0,-0.001 0.003,-0.012 0.006,-0.026c0.037,-0.005 0.084,-0.014 0.124,-0.015c0.416,-0.016 0.833,-0.012 1.249,0.001zM23.924,19.176c0.921,0.019 2.361,-0.202 2.802,0.83c0.26,0.61 -0.176,1.295 -0.739,1.507c-0.206,0.077 -0.424,0.112 -0.646,0.131c-0.002,0 -0.005,0 -0.007,0c-0.003,0 -0.005,0.002 -0.008,0.002c-0.326,0.027 -0.659,0.015 -0.976,0.005c-0.826,-0.026 -1.655,-0.022 -2.48,-0.076c-0.275,-0.018 -0.56,-0.048 -0.837,-0.102l1.077,-2.297c0.585,0.119 1.223,-0.012 1.814,0zM8.792,39.361c-0.208,0.829 -0.463,1.644 -0.71,2.461c-0.053,0.176 -0.154,0.501 -0.234,0.765c-0.02,0 -0.165,-0.001 -0.301,0.002c-0.277,0.007 -0.337,0.007 -0.614,-0.001c-0.151,-0.004 -0.368,-0.015 -0.517,-0.021c0.043,-0.134 0.055,-0.35 0.081,-0.466c0.044,-0.194 0.088,-0.389 0.133,-0.583c0.195,-0.85 0.393,-1.699 0.598,-2.547c0.371,-1.543 0.768,-3.079 1.181,-4.611c0.402,0.229 0.824,0.424 1.261,0.588c-0.248,1.479 -0.513,2.958 -0.878,4.413zM14.344,34.847c-1.928,-0.103 -4.093,-0.468 -5.749,-1.526c-1.613,-1.03 -2.317,-2.763 -2.681,-4.569c-0.404,-2.007 -0.661,-4.052 -0.951,-6.078c-0.338,-2.364 -0.644,-4.733 -0.925,-7.105c0.207,-0.25 0.453,-0.517 0.752,-0.598c0.326,-0.089 0.67,0.088 0.959,0.221c0.853,0.392 1.452,0.984 1.845,1.842c0.459,1.004 0.533,2.128 0.584,3.215c0.055,1.177 0.136,2.34 0.32,3.505c0.177,1.122 0.389,2.248 0.646,3.355c0.209,0.903 0.527,1.786 1.144,2.494c1.363,1.565 3.572,1.849 5.527,1.773c1.046,-0.041 2.323,-0.295 3.288,0.236c0.919,0.506 1.411,1.975 1.094,2.993c-1.947,0.165 -3.9,0.346 -5.853,0.242zM20.722,42.779c-0.207,0.005 -0.415,0.019 -0.622,0.013c-0.206,-0.005 -0.412,-0.016 -0.618,-0.031c-0.098,-0.007 -0.196,-0.018 -0.294,-0.023c0,0.11 -0.009,0.113 -0.029,0.011c-0.014,-0.049 -0.028,-0.098 -0.042,-0.148c-0.231,-0.821 -0.434,-1.65 -0.675,-2.469c-0.426,-1.443 -0.93,-2.825 -1.082,-4.321c0.458,-0.025 0.916,-0.05 1.374,-0.086c0.466,2.4 1.596,4.644 1.988,7.054zM23.641,32.997c0.359,1.016 0.66,2.052 0.9,3.102c0.183,0.802 0.897,2.824 -0.111,3.281c-0.549,0.249 -1.066,0.267 -1.463,-0.204c-0.31,-0.367 -0.542,-0.802 -0.749,-1.233c-0.45,-0.937 -0.768,-1.931 -1.138,-2.901c0.4,-1.146 0.146,-2.492 -0.592,-3.453l1.893,-1.508c0.569,0.892 0.931,1.985 1.26,2.916zM20.066,28.417c0.698,0.106 1.238,0.441 1.686,0.888l-1.996,1.59c-0.286,-0.199 -0.594,-0.367 -0.946,-0.455c-1.057,-0.264 -2.161,-0.085 -3.232,-0.057c-1.282,0.034 -2.61,-0.081 -3.727,-0.766c-0.285,-0.175 -0.522,-0.38 -0.726,-0.606c0.227,-0.965 0.477,-1.924 0.741,-2.879l5.288,1.219c0.022,0.225 0.11,0.434 0.328,0.602c0.661,0.511 1.803,0.346 2.584,0.464zM17.46,26.023c-0.035,0.109 -0.077,0.227 -0.119,0.346l-5.209,-1.201c0.413,-1.419 0.867,-2.825 1.365,-4.217c0.449,-1.253 0.863,-2.579 1.522,-3.74c0.58,-1.021 1.431,-1.828 2.643,-1.297c1.133,0.496 2.113,1.475 2.99,2.323c0.178,0.172 0.36,0.345 0.555,0.5l-1.108,2.365c-0.642,-0.391 -1.223,-0.968 -1.765,-1.42c-0.491,-0.41 -1.202,0.294 -0.707,0.707c0.415,0.346 0.841,0.737 1.291,1.09c-0.477,1.516 -0.974,3.028 -1.458,4.544zM35.675,42.475c-1.175,0.033 -2.413,-0.186 -3.572,0c-1.182,0.189 -2.344,0.414 -3.537,0.273c0.044,-5.786 0.118,-11.575 -0.063,-17.359c-0.008,-0.267 -0.222,-0.504 -0.5,-0.5c-1.83,0.025 -3.659,0.051 -5.489,0.076c-0.203,0.003 -0.407,0.006 -0.61,0.008c-0.122,0.002 -0.244,0.003 -0.366,0.005c-0.001,0 -0.001,0 -0.002,0c-0.006,-0.284 0.003,-0.57 0.002,-0.853c-0.002,-0.518 -0.002,-1.037 -0.002,-1.555c0.72,0.069 1.464,0.042 2.153,0.06c0.511,0.013 1.076,0.047 1.624,0.01c0.008,0 0.013,0.005 0.022,0.005c3.698,0.044 15.182,0.045 17.065,0.097c0.117,0.639 0.096,1.309 0.105,1.953c0.012,0.865 0.02,1.731 0.024,2.596c0.009,1.742 0.005,3.484 -0.003,5.226c-0.016,3.309 -0.049,6.617 -0.053,9.926c-2.255,-0.222 -4.543,-0.032 -6.798,0.032z"></path></g></g></g></svg>